<mxfile host="app.diagrams.net" agent="Mozilla/5.0 (Macintosh; Intel Mac OS X 10_15_7) AppleWebKit/537.36 (KHTML, like Gecko) Chrome/128.0.0.0 Safari/537.36" version="28.2.8">
  <diagram name="第 1 页" id="O50kp5yKcJKHaVUtATPA">
    <mxGraphModel dx="1018" dy="571" grid="1" gridSize="10" guides="1" tooltips="1" connect="1" arrows="1" fold="1" page="1" pageScale="1" pageWidth="827" pageHeight="1169" math="0" shadow="0">
      <root>
        <mxCell id="0" />
        <mxCell id="1" parent="0" />
        <mxCell id="vmeBpeXBkIES4imDZWcj-1" value="Planner 内部&#xa;" style="whiteSpace=wrap;strokeWidth=2;" vertex="1" parent="1">
          <mxGeometry x="356" y="20" width="204" height="220" as="geometry" />
        </mxCell>
        <mxCell id="vmeBpeXBkIES4imDZWcj-2" value="UserInput" style="whiteSpace=wrap;strokeWidth=2;" vertex="1" parent="1">
          <mxGeometry x="20" y="130" width="129" height="54" as="geometry" />
        </mxCell>
        <mxCell id="vmeBpeXBkIES4imDZWcj-3" value="Router" style="whiteSpace=wrap;strokeWidth=2;" vertex="1" parent="1">
          <mxGeometry x="199" y="130" width="107" height="54" as="geometry" />
        </mxCell>
        <mxCell id="vmeBpeXBkIES4imDZWcj-23" style="edgeStyle=orthogonalEdgeStyle;rounded=0;orthogonalLoop=1;jettySize=auto;html=1;entryX=0;entryY=0.5;entryDx=0;entryDy=0;curved=1;" edge="1" parent="1" source="vmeBpeXBkIES4imDZWcj-4" target="vmeBpeXBkIES4imDZWcj-7">
          <mxGeometry relative="1" as="geometry" />
        </mxCell>
        <mxCell id="vmeBpeXBkIES4imDZWcj-24" style="edgeStyle=orthogonalEdgeStyle;rounded=0;orthogonalLoop=1;jettySize=auto;html=1;entryX=0;entryY=0.5;entryDx=0;entryDy=0;curved=1;" edge="1" parent="1" source="vmeBpeXBkIES4imDZWcj-4" target="vmeBpeXBkIES4imDZWcj-8">
          <mxGeometry relative="1" as="geometry" />
        </mxCell>
        <mxCell id="vmeBpeXBkIES4imDZWcj-4" value="Executor （LangGraph）" style="whiteSpace=wrap;strokeWidth=2;" vertex="1" parent="1">
          <mxGeometry x="640" y="108" width="136" height="54" as="geometry" />
        </mxCell>
        <mxCell id="vmeBpeXBkIES4imDZWcj-5" value="SK-Planner" style="whiteSpace=wrap;strokeWidth=2;" vertex="1" parent="1">
          <mxGeometry x="381" y="140" width="137" height="54" as="geometry" />
        </mxCell>
        <mxCell id="vmeBpeXBkIES4imDZWcj-21" value="" style="edgeStyle=orthogonalEdgeStyle;rounded=0;orthogonalLoop=1;jettySize=auto;html=1;dashed=1;" edge="1" parent="1" source="vmeBpeXBkIES4imDZWcj-6" target="vmeBpeXBkIES4imDZWcj-5">
          <mxGeometry relative="1" as="geometry" />
        </mxCell>
        <mxCell id="vmeBpeXBkIES4imDZWcj-6" value="Skill Registry" style="whiteSpace=wrap;strokeWidth=2;" vertex="1" parent="1">
          <mxGeometry x="385" y="48" width="129" height="54" as="geometry" />
        </mxCell>
        <mxCell id="vmeBpeXBkIES4imDZWcj-7" value="API Adapter Layer" style="whiteSpace=wrap;strokeWidth=2;" vertex="1" parent="1">
          <mxGeometry x="849" y="55" width="188" height="54" as="geometry" />
        </mxCell>
        <mxCell id="vmeBpeXBkIES4imDZWcj-8" value="Dify/LLM Agents" style="whiteSpace=wrap;strokeWidth=2;" vertex="1" parent="1">
          <mxGeometry x="855" y="175" width="176" height="54" as="geometry" />
        </mxCell>
        <mxCell id="vmeBpeXBkIES4imDZWcj-9" value="后端系统" style="shape=cylinder3;boundedLbl=1;backgroundOutline=1;size=10;strokeWidth=2;whiteSpace=wrap;" vertex="1" parent="1">
          <mxGeometry x="1170" y="48" width="79" height="68" as="geometry" />
        </mxCell>
        <mxCell id="vmeBpeXBkIES4imDZWcj-10" value="大模型服务" style="shape=cylinder3;boundedLbl=1;backgroundOutline=1;size=10;strokeWidth=2;whiteSpace=wrap;" vertex="1" parent="1">
          <mxGeometry x="1170" y="166.5" width="95" height="71" as="geometry" />
        </mxCell>
        <mxCell id="vmeBpeXBkIES4imDZWcj-11" value="" style="curved=1;startArrow=none;endArrow=block;exitX=1;exitY=0.51;entryX=0;entryY=0.51;rounded=0;" edge="1" parent="1" source="vmeBpeXBkIES4imDZWcj-2" target="vmeBpeXBkIES4imDZWcj-3">
          <mxGeometry relative="1" as="geometry">
            <Array as="points" />
          </mxGeometry>
        </mxCell>
        <mxCell id="vmeBpeXBkIES4imDZWcj-15" value="REST/gRPC 调用" style="curved=1;startArrow=none;endArrow=block;exitX=1;exitY=0.5;entryX=0;entryY=0.5;rounded=0;" edge="1" parent="1" source="vmeBpeXBkIES4imDZWcj-7" target="vmeBpeXBkIES4imDZWcj-9">
          <mxGeometry relative="1" as="geometry">
            <Array as="points" />
          </mxGeometry>
        </mxCell>
        <mxCell id="vmeBpeXBkIES4imDZWcj-16" value="Prompt Calls" style="curved=1;startArrow=none;endArrow=block;exitX=1;exitY=0.49;entryX=0;entryY=0.5;rounded=0;" edge="1" parent="1" source="vmeBpeXBkIES4imDZWcj-8" target="vmeBpeXBkIES4imDZWcj-10">
          <mxGeometry relative="1" as="geometry">
            <Array as="points" />
          </mxGeometry>
        </mxCell>
        <mxCell id="vmeBpeXBkIES4imDZWcj-17" value="" style="curved=1;startArrow=none;endArrow=block;rounded=0;" edge="1" parent="1" source="vmeBpeXBkIES4imDZWcj-3" target="vmeBpeXBkIES4imDZWcj-1">
          <mxGeometry relative="1" as="geometry">
            <Array as="points" />
          </mxGeometry>
        </mxCell>
        <mxCell id="vmeBpeXBkIES4imDZWcj-18" value="生成Graph" style="curved=1;startArrow=none;endArrow=block;rounded=0;" edge="1" parent="1" source="vmeBpeXBkIES4imDZWcj-1" target="vmeBpeXBkIES4imDZWcj-4">
          <mxGeometry relative="1" as="geometry">
            <Array as="points" />
          </mxGeometry>
        </mxCell>
        <mxCell id="vmeBpeXBkIES4imDZWcj-22" value="" style="edgeStyle=orthogonalEdgeStyle;rounded=0;orthogonalLoop=1;jettySize=auto;html=1;dashed=1;" edge="1" parent="1" source="vmeBpeXBkIES4imDZWcj-19" target="vmeBpeXBkIES4imDZWcj-5">
          <mxGeometry relative="1" as="geometry" />
        </mxCell>
        <mxCell id="vmeBpeXBkIES4imDZWcj-19" value="memory" style="whiteSpace=wrap;html=1;strokeWidth=2;" vertex="1" parent="1">
          <mxGeometry x="389.5" y="270" width="120" height="60" as="geometry" />
        </mxCell>
      </root>
    </mxGraphModel>
  </diagram>
</mxfile>
